<?xml version="1.0" encoding="UTF-8" standalone="no"?>
<!-- Created with Inkscape (http://www.inkscape.org/) -->

<svg
   width="209.75845mm"
   height="227.28458mm"
   viewBox="0 0 209.75845 227.28458"
   version="1.1"
   id="svg1"
   inkscape:export-filename="..\..\..\..\..\..\Pictures\rock_routes\rock_routes_logo.svg"
   inkscape:export-xdpi="96"
   inkscape:export-ydpi="96"
   sodipodi:docname="rock_routes_logo.svg"
   inkscape:version="1.3.2 (091e20e, 2023-11-25, custom)"
   xmlns:inkscape="http://www.inkscape.org/namespaces/inkscape"
   xmlns:sodipodi="http://sodipodi.sourceforge.net/DTD/sodipodi-0.dtd"
   xmlns="http://www.w3.org/2000/svg"
   xmlns:svg="http://www.w3.org/2000/svg">
  <sodipodi:namedview
     id="namedview1"
     pagecolor="#ffffff"
     bordercolor="#111111"
     borderopacity="1"
     inkscape:showpageshadow="0"
     inkscape:pageopacity="0"
     inkscape:pagecheckerboard="1"
     inkscape:deskcolor="#d1d1d1"
     inkscape:document-units="mm"
     inkscape:zoom="0.72426347"
     inkscape:cx="396.26464"
     inkscape:cy="449.42209"
     inkscape:window-width="1920"
     inkscape:window-height="1009"
     inkscape:window-x="2552"
     inkscape:window-y="-2"
     inkscape:window-maximized="1"
     inkscape:current-layer="layer1" />
  <defs
     id="defs1">
    <inkscape:path-effect
       effect="powerclip"
       id="path-effect15"
       is_visible="true"
       lpeversion="1"
       inverse="true"
       flatten="false"
       hide_clip="false"
       message="Use fill-rule evenodd on &lt;b&gt;fill and stroke&lt;/b&gt; dialog if no flatten result after convert clip to paths." />
    <inkscape:path-effect
       effect="powerclip"
       id="path-effect14"
       is_visible="true"
       lpeversion="1"
       inverse="true"
       flatten="false"
       hide_clip="false"
       message="Use fill-rule evenodd on &lt;b&gt;fill and stroke&lt;/b&gt; dialog if no flatten result after convert clip to paths." />
    <inkscape:path-effect
       effect="powerclip"
       id="path-effect11"
       is_visible="true"
       lpeversion="1"
       inverse="true"
       flatten="false"
       hide_clip="false"
       message="Use fill-rule evenodd on &lt;b&gt;fill and stroke&lt;/b&gt; dialog if no flatten result after convert clip to paths." />
    <inkscape:path-effect
       effect="powerclip"
       id="path-effect8"
       is_visible="true"
       lpeversion="1"
       inverse="true"
       flatten="false"
       hide_clip="false"
       message="Use fill-rule evenodd on &lt;b&gt;fill and stroke&lt;/b&gt; dialog if no flatten result after convert clip to paths." />
    <clipPath
       clipPathUnits="userSpaceOnUse"
       id="clipPath8">
      <circle
         style="display:none;fill:#000000;stroke-width:0.264583"
         id="circle8"
         cx="130.41698"
         cy="108.13285"
         r="14.247232"
         d="m 144.66421,108.13285 a 14.247232,14.247232 0 0 1 -14.24723,14.24723 14.247232,14.247232 0 0 1 -14.24724,-14.24723 14.247232,14.247232 0 0 1 14.24724,-14.247232 14.247232,14.247232 0 0 1 14.24723,14.247232 z" />
      <path
         id="lpe_path-effect8"
         style="fill:#000000;stroke-width:0.264583"
         class="powerclip"
         d="M 62.658754,58.680135 H 167.455 V 150.68725 H 62.658754 Z m 82.005456,49.452715 a 14.247232,14.247232 0 0 0 -14.24723,-14.247232 14.247232,14.247232 0 0 0 -14.24724,14.247232 14.247232,14.247232 0 0 0 14.24724,14.24723 14.247232,14.247232 0 0 0 14.24723,-14.24723 z" />
    </clipPath>
    <clipPath
       clipPathUnits="userSpaceOnUse"
       id="clipPath11">
      <circle
         style="display:none;fill:#d12a2a;fill-opacity:1;stroke:none;stroke-width:5.82525;stroke-linecap:butt;stroke-linejoin:round;stroke-dasharray:none;stroke-opacity:1;paint-order:stroke fill markers"
         id="circle11"
         cx="53.518456"
         cy="175.89853"
         r="13.699261"
         d="m 67.217716,175.89853 a 13.699261,13.699261 0 0 1 -13.69926,13.69926 13.699261,13.699261 0 0 1 -13.699261,-13.69926 13.699261,13.699261 0 0 1 13.699261,-13.69926 13.699261,13.699261 0 0 1 13.69926,13.69926 z" />
      <path
         id="lpe_path-effect11"
         style="fill:#d12a2a;fill-opacity:1;stroke:none;stroke-width:5.82525;stroke-linecap:butt;stroke-linejoin:round;stroke-dasharray:none;stroke-opacity:1;paint-order:stroke fill markers"
         class="powerclip"
         d="M 13.191838,129.6532 H 89.599667 V 250.29996 H 13.191838 Z m 54.025878,46.24533 a 13.699261,13.699261 0 0 0 -13.69926,-13.69926 13.699261,13.699261 0 0 0 -13.699261,13.69926 13.699261,13.699261 0 0 0 13.699261,13.69926 13.699261,13.699261 0 0 0 13.69926,-13.69926 z" />
    </clipPath>
    <clipPath
       clipPathUnits="userSpaceOnUse"
       id="clipPath14">
      <circle
         style="display:none;fill:#ffe6d5;fill-opacity:1;stroke:none;stroke-width:12.9808;stroke-linecap:butt;stroke-linejoin:round;stroke-dasharray:none;stroke-opacity:1;paint-order:stroke fill markers"
         id="circle14"
         cx="126.58118"
         cy="204.7583"
         r="13.699262"
         d="m 140.28044,204.7583 a 13.699262,13.699262 0 0 1 -13.69926,13.69926 13.699262,13.699262 0 0 1 -13.69926,-13.69926 13.699262,13.699262 0 0 1 13.69926,-13.69926 13.699262,13.699262 0 0 1 13.69926,13.69926 z" />
      <path
         id="lpe_path-effect14"
         style="fill:#ffe6d5;fill-opacity:1;stroke:none;stroke-width:12.9808;stroke-linecap:butt;stroke-linejoin:round;stroke-dasharray:none;stroke-opacity:1;paint-order:stroke fill markers"
         class="powerclip"
         d="M 80.828089,133.92793 H 193.00028 V 246.8603 H 80.828089 Z m 59.452351,70.83037 a 13.699262,13.699262 0 0 0 -13.69926,-13.69926 13.699262,13.699262 0 0 0 -13.69926,13.69926 13.699262,13.699262 0 0 0 13.69926,13.69926 13.699262,13.699262 0 0 0 13.69926,-13.69926 z" />
    </clipPath>
    <clipPath
       clipPathUnits="userSpaceOnUse"
       id="clipPath15">
      <circle
         style="display:none;fill:#ffe6d5;fill-opacity:1;stroke:none;stroke-width:8.41558;stroke-linecap:butt;stroke-linejoin:round;stroke-dasharray:none;stroke-opacity:1;paint-order:stroke fill markers"
         id="circle15"
         cx="48.586712"
         cy="101.92251"
         r="13.151291"
         d="M 61.738003,101.92251 A 13.151291,13.151291 0 0 1 48.586712,115.0738 13.151291,13.151291 0 0 1 35.435421,101.92251 13.151291,13.151291 0 0 1 48.586712,88.771217 13.151291,13.151291 0 0 1 61.738003,101.92251 Z" />
      <path
         id="lpe_path-effect15"
         style="fill:#ffe6d5;fill-opacity:1;stroke:none;stroke-width:8.41558;stroke-linecap:butt;stroke-linejoin:round;stroke-dasharray:none;stroke-opacity:1;paint-order:stroke fill markers"
         class="powerclip"
         d="M 2.8673949,42.275352 H 90.61143 V 153.54559 H 2.8673949 Z M 61.738003,101.92251 A 13.151291,13.151291 0 0 0 48.586712,88.771217 13.151291,13.151291 0 0 0 35.435421,101.92251 13.151291,13.151291 0 0 0 48.586712,115.0738 13.151291,13.151291 0 0 0 61.738003,101.92251 Z" />
    </clipPath>
  </defs>
  <g
     inkscape:label="Layer 1"
     inkscape:groupmode="layer"
     id="layer1"
     transform="translate(-0.62553216,-27.293424)">
    <rect
       style="fill:#efeae6;fill-opacity:1;stroke:#efeae6;stroke-width:36.3527;stroke-linecap:butt;stroke-linejoin:round;stroke-dasharray:none;stroke-opacity:1;paint-order:stroke fill markers"
       id="rect17"
       width="173.51079"
       height="173.51079"
       x="18.801868"
       y="45.469761" />
    <path
       style="fill:#69385c;fill-opacity:1;stroke:#69385c;stroke-width:9;stroke-linejoin:round;stroke-dasharray:none;stroke-opacity:1"
       d="m 127.83615,165.30349 -37.508196,-21.87597 9.362602,61.98745 23.165434,31.94534 35.04688,-0.8337 25.59745,-21.41132 -0.91834,-5.14924 -38.92804,-15.80614 z"
       id="path1"
       sodipodi:nodetypes="ccccccccc"
       clip-path="url(#clipPath14)"
       inkscape:path-effect="#path-effect14"
       inkscape:original-d="m 127.83615,165.30349 -37.508196,-21.87597 9.362602,61.98745 23.165434,31.94534 35.04688,-0.8337 25.59745,-21.41132 -0.91834,-5.14924 -38.92804,-15.80614 z"
       transform="matrix(1.0536928,0,0,1.0046803,3.8318106,-15.131069)" />
    <path
       style="fill:#69385c;fill-opacity:1;stroke:#69385c;stroke-width:8;stroke-linecap:butt;stroke-linejoin:round;stroke-dasharray:none;stroke-opacity:1"
       d="M 22.229962,144.54589 11.867338,117.60825 27.209933,98.894591 30.223829,51.274815 81.611453,105.10097 76.842494,138.47388 48.973399,118.91981 Z"
       id="path2"
       clip-path="url(#clipPath15)"
       inkscape:path-effect="#path-effect15"
       inkscape:original-d="M 22.229962,144.54589 11.867338,117.60825 27.209933,98.894591 30.223829,51.274815 81.611453,105.10097 76.842494,138.47388 48.973399,118.91981 Z"
       transform="matrix(1.0536928,0,0,1.0046803,1.5222413,-15.498094)" />
    <path
       style="fill:#69385c;fill-opacity:1;stroke:#69385c;stroke-width:8;stroke-linejoin:round;stroke-dasharray:none;stroke-opacity:1;paint-order:stroke fill markers"
       d="m 117.04923,141.68732 41.40578,-12.48146 -0.77589,-43.870217 -43.4664,-17.65552 -42.554251,6.324859 z"
       id="path3"
       sodipodi:nodetypes="cccccc"
       clip-path="url(#clipPath8)"
       inkscape:path-effect="#path-effect8"
       inkscape:original-d="m 117.04923,141.68732 41.40578,-12.48146 -0.77589,-43.870217 -43.4664,-17.65552 -42.554251,6.324859 z"
       transform="matrix(1.0536928,0,0,1.0046803,6.1413796,-21.370469)" />
    <path
       style="fill:#69385c;fill-opacity:1;stroke:#69385c;stroke-width:8;stroke-linejoin:round;stroke-dasharray:none;stroke-opacity:1"
       d="m 26.964267,240.81489 -4.77244,-66.42379 31.549777,-35.7381 26.858082,29.72152 -3.346025,27.00871 -14.070879,6.78583 -12.57531,39.13091 z"
       id="path4"
       sodipodi:nodetypes="cccccccc"
       clip-path="url(#clipPath11)"
       inkscape:path-effect="#path-effect11"
       inkscape:original-d="m 26.964267,240.81489 -4.77244,-66.42379 31.549777,-35.7381 26.858082,29.72152 -3.346025,27.00871 -14.070879,6.78583 -12.57531,39.13091 z"
       transform="matrix(1.0536928,0,0,1.0046803,-0.40240033,-14.03)" />
    <ellipse
       style="fill:#69385c;fill-opacity:1;stroke:#69385c;stroke-width:0.272228;stroke-opacity:1"
       id="path8"
       cx="143.56076"
       cy="88.002518"
       rx="5.3889971"
       ry="5.1383281" />
    <circle
       style="fill:#ffe6d5;fill-opacity:0;stroke:#000000;stroke-width:8.52897;stroke-linecap:butt;stroke-linejoin:round;stroke-dasharray:none;stroke-opacity:0;paint-order:stroke fill markers"
       id="path10"
       cx="160.80939"
       cy="169.95119"
       r="10.126198" />
    <ellipse
       style="fill:#69385c;fill-opacity:1;stroke:#69385c;stroke-width:0.272228;stroke-opacity:1"
       id="circle12"
       cx="55.79715"
       cy="162.87527"
       rx="5.3889971"
       ry="5.1383281" />
    <ellipse
       style="fill:#69385c;fill-opacity:1;stroke-width:0.272228"
       id="circle16"
       cx="137.01701"
       cy="191.13608"
       rx="5.3889971"
       ry="5.1383281" />
    <ellipse
       style="fill:#69385c;fill-opacity:1;stroke-width:0.272228"
       id="circle17"
       cx="53.102631"
       cy="87.268471"
       rx="5.3889971"
       ry="5.1383281" />
  </g>
</svg>
